<?xml version="1.0" encoding="UTF-8" standalone="no"?>
<!DOCTYPE svg PUBLIC "-//W3C//DTD SVG 1.1//EN"
 "http://www.w3.org/Graphics/SVG/1.1/DTD/svg11.dtd">
<!-- Generated by graphviz version 9.0.0 (20230911.1827)
 -->
<!-- Title: snakemake_dag Pages: 1 -->
<svg width="806pt" height="620pt"
 viewBox="0.00 0.00 805.75 620.00" xmlns="http://www.w3.org/2000/svg" xmlns:xlink="http://www.w3.org/1999/xlink">
<g id="graph0" class="graph" transform="scale(1 1) rotate(0) translate(4 616)">
<title>snakemake_dag</title>
<polygon fill="white" stroke="none" points="-4,4 -4,-616 801.75,-616 801.75,4 -4,4"/>
<!-- 0 -->
<g id="node1" class="node">
<title>0</title>
<path fill="none" stroke="#a7d856" stroke-width="2" d="M289.5,-36C289.5,-36 259.5,-36 259.5,-36 253.5,-36 247.5,-30 247.5,-24 247.5,-24 247.5,-12 247.5,-12 247.5,-6 253.5,0 259.5,0 259.5,0 289.5,0 289.5,0 295.5,0 301.5,-6 301.5,-12 301.5,-12 301.5,-24 301.5,-24 301.5,-30 295.5,-36 289.5,-36"/>
<text text-anchor="middle" x="274.5" y="-14.12" font-family="sans" font-size="10.00">all</text>
</g>
<!-- 1 -->
<g id="node2" class="node">
<title>1</title>
<path fill="none" stroke="#d87d56" stroke-width="2" d="M79,-108C79,-108 12,-108 12,-108 6,-108 0,-102 0,-96 0,-96 0,-84 0,-84 0,-78 6,-72 12,-72 12,-72 79,-72 79,-72 85,-72 91,-78 91,-84 91,-84 91,-96 91,-96 91,-102 85,-108 79,-108"/>
<text text-anchor="middle" x="45.5" y="-86.12" font-family="sans" font-size="10.00">current_rulegraph</text>
</g>
<!-- 1&#45;&gt;0 -->
<g id="edge3" class="edge">
<title>1&#45;&gt;0</title>
<path fill="none" stroke="grey" stroke-width="2" d="M91.84,-74.83C133.62,-62.07 194.42,-43.48 234.21,-31.31"/>
<polygon fill="grey" stroke="grey" stroke-width="2" points="235.16,-34.69 243.7,-28.41 233.11,-27.99 235.16,-34.69"/>
</g>
<!-- 2 -->
<g id="node3" class="node">
<title>2</title>
<path fill="none" stroke="#d8cb56" stroke-width="2" d="M477.5,-180C477.5,-180 383.5,-180 383.5,-180 377.5,-180 371.5,-174 371.5,-168 371.5,-168 371.5,-156 371.5,-156 371.5,-150 377.5,-144 383.5,-144 383.5,-144 477.5,-144 477.5,-144 483.5,-144 489.5,-150 489.5,-156 489.5,-156 489.5,-168 489.5,-168 489.5,-174 483.5,-180 477.5,-180"/>
<text text-anchor="middle" x="430.5" y="-158.12" font-family="sans" font-size="10.00">plot_simulated_mobility</text>
</g>
<!-- 2&#45;&gt;0 -->
<g id="edge6" class="edge">
<title>2&#45;&gt;0</title>
<path fill="none" stroke="grey" stroke-width="2" d="M410.74,-143.02C383.67,-118.37 334.83,-73.92 303.58,-45.47"/>
<polygon fill="grey" stroke="grey" stroke-width="2" points="306.09,-43.02 296.34,-38.88 301.37,-48.2 306.09,-43.02"/>
</g>
<!-- 3 -->
<g id="node4" class="node">
<title>3</title>
<path fill="none" stroke="#566bd8" stroke-width="2" d="M256.12,-468C256.12,-468 216.88,-468 216.88,-468 210.88,-468 204.88,-462 204.88,-456 204.88,-456 204.88,-444 204.88,-444 204.88,-438 210.88,-432 216.88,-432 216.88,-432 256.12,-432 256.12,-432 262.12,-432 268.12,-438 268.12,-444 268.12,-444 268.12,-456 268.12,-456 268.12,-462 262.12,-468 256.12,-468"/>
<text text-anchor="middle" x="236.5" y="-446.12" font-family="sans" font-size="10.00">clean_mob</text>
</g>
<!-- 3&#45;&gt;2 -->
<g id="edge9" class="edge">
<title>3&#45;&gt;2</title>
<path fill="none" stroke="grey" stroke-width="2" d="M231.9,-431.2C224.72,-399.1 214.77,-330.89 246.5,-288 273.6,-251.37 304.26,-276.78 342.5,-252 349.7,-247.33 381.55,-214.52 404.86,-190.08"/>
<polygon fill="grey" stroke="grey" stroke-width="2" points="407.18,-192.73 411.53,-183.07 402.1,-187.9 407.18,-192.73"/>
</g>
<!-- 9 -->
<g id="node10" class="node">
<title>9</title>
<path fill="none" stroke="#56d8d0" stroke-width="2" d="M392.62,-396C392.62,-396 278.38,-396 278.38,-396 272.38,-396 266.38,-390 266.38,-384 266.38,-384 266.38,-372 266.38,-372 266.38,-366 272.38,-360 278.38,-360 278.38,-360 392.62,-360 392.62,-360 398.62,-360 404.62,-366 404.62,-372 404.62,-372 404.62,-384 404.62,-384 404.62,-390 398.62,-396 392.62,-396"/>
<text text-anchor="middle" x="335.5" y="-374.12" font-family="sans" font-size="10.00">collective_model_sensitivity</text>
</g>
<!-- 3&#45;&gt;9 -->
<g id="edge18" class="edge">
<title>3&#45;&gt;9</title>
<path fill="none" stroke="grey" stroke-width="2" d="M261.74,-431.15C273.26,-423.01 287.11,-413.22 299.68,-404.33"/>
<polygon fill="grey" stroke="grey" stroke-width="2" points="301.69,-407.19 307.84,-398.56 297.65,-401.48 301.69,-407.19"/>
</g>
<!-- 16 -->
<g id="node17" class="node">
<title>16</title>
<path fill="none" stroke="#56d0d8" stroke-width="2" d="M187.12,-324C187.12,-324 51.88,-324 51.88,-324 45.88,-324 39.88,-318 39.88,-312 39.88,-312 39.88,-300 39.88,-300 39.88,-294 45.88,-288 51.88,-288 51.88,-288 187.12,-288 187.12,-288 193.12,-288 199.12,-294 199.12,-300 199.12,-300 199.12,-312 199.12,-312 199.12,-318 193.12,-324 187.12,-324"/>
<text text-anchor="middle" x="119.5" y="-302.12" font-family="sans" font-size="10.00">plot_collective_model_sensitivity</text>
</g>
<!-- 3&#45;&gt;16 -->
<g id="edge27" class="edge">
<title>3&#45;&gt;16</title>
<path fill="none" stroke="grey" stroke-width="2" d="M221.68,-431.02C201.64,-406.69 165.7,-363.07 142.23,-334.58"/>
<polygon fill="grey" stroke="grey" stroke-width="2" points="145.18,-332.67 136.12,-327.17 139.78,-337.12 145.18,-332.67"/>
</g>
<!-- 4 -->
<g id="node5" class="node">
<title>4</title>
<path fill="none" stroke="#59d856" stroke-width="2" d="M265.12,-540C265.12,-540 207.88,-540 207.88,-540 201.88,-540 195.88,-534 195.88,-528 195.88,-528 195.88,-516 195.88,-516 195.88,-510 201.88,-504 207.88,-504 207.88,-504 265.12,-504 265.12,-504 271.12,-504 277.12,-510 277.12,-516 277.12,-516 277.12,-528 277.12,-528 277.12,-534 271.12,-540 265.12,-540"/>
<text text-anchor="middle" x="236.5" y="-518.12" font-family="sans" font-size="10.00">download_mob</text>
</g>
<!-- 4&#45;&gt;3 -->
<g id="edge12" class="edge">
<title>4&#45;&gt;3</title>
<path fill="none" stroke="grey" stroke-width="2" d="M236.5,-503.34C236.5,-496.75 236.5,-489.08 236.5,-481.67"/>
<polygon fill="grey" stroke="grey" stroke-width="2" points="240,-481.93 236.5,-471.93 233,-481.93 240,-481.93"/>
</g>
<!-- 5 -->
<g id="node6" class="node">
<title>5</title>
<path fill="none" stroke="#d86e56" stroke-width="2" d="M412.62,-540C412.62,-540 376.38,-540 376.38,-540 370.38,-540 364.38,-534 364.38,-528 364.38,-528 364.38,-516 364.38,-516 364.38,-510 370.38,-504 376.38,-504 376.38,-504 412.62,-504 412.62,-504 418.62,-504 424.62,-510 424.62,-516 424.62,-516 424.62,-528 424.62,-528 424.62,-534 418.62,-540 412.62,-540"/>
<text text-anchor="middle" x="394.5" y="-518.12" font-family="sans" font-size="10.00">clean_pop</text>
</g>
<!-- 5&#45;&gt;3 -->
<g id="edge13" class="edge">
<title>5&#45;&gt;3</title>
<path fill="none" stroke="grey" stroke-width="2" d="M363.66,-507.34C339.99,-496.85 306.98,-482.22 280.53,-470.51"/>
<polygon fill="grey" stroke="grey" stroke-width="2" points="282.22,-467.43 271.66,-466.58 279.38,-473.83 282.22,-467.43"/>
</g>
<!-- 8 -->
<g id="node9" class="node">
<title>8</title>
<path fill="none" stroke="#b6d856" stroke-width="2" d="M472.88,-324C472.88,-324 420.12,-324 420.12,-324 414.12,-324 408.12,-318 408.12,-312 408.12,-312 408.12,-300 408.12,-300 408.12,-294 414.12,-288 420.12,-288 420.12,-288 472.88,-288 472.88,-288 478.88,-288 484.88,-294 484.88,-300 484.88,-300 484.88,-312 484.88,-312 484.88,-318 478.88,-324 472.88,-324"/>
<text text-anchor="middle" x="446.5" y="-302.12" font-family="sans" font-size="10.00">simulate_depr</text>
</g>
<!-- 5&#45;&gt;8 -->
<g id="edge17" class="edge">
<title>5&#45;&gt;8</title>
<path fill="none" stroke="grey" stroke-width="2" d="M398.84,-503.12C407.73,-466.54 428.09,-382.77 439.1,-337.45"/>
<polygon fill="grey" stroke="grey" stroke-width="2" points="442.46,-338.46 441.42,-327.92 435.65,-336.81 442.46,-338.46"/>
</g>
<!-- 5&#45;&gt;9 -->
<g id="edge19" class="edge">
<title>5&#45;&gt;9</title>
<path fill="none" stroke="grey" stroke-width="2" d="M393,-503.23C390.92,-484.74 386.13,-455.28 375.5,-432 371.53,-423.3 365.93,-414.68 360.18,-407"/>
<polygon fill="grey" stroke="grey" stroke-width="2" points="362.95,-404.86 353.99,-399.21 357.48,-409.22 362.95,-404.86"/>
</g>
<!-- 11 -->
<g id="node12" class="node">
<title>11</title>
<path fill="none" stroke="#d8a456" stroke-width="2" d="M543,-468C543,-468 482,-468 482,-468 476,-468 470,-462 470,-456 470,-456 470,-444 470,-444 470,-438 476,-432 482,-432 482,-432 543,-432 543,-432 549,-432 555,-438 555,-444 555,-444 555,-456 555,-456 555,-462 549,-468 543,-468"/>
<text text-anchor="middle" x="512.5" y="-446.12" font-family="sans" font-size="10.00">distance_matrix</text>
</g>
<!-- 5&#45;&gt;11 -->
<g id="edge24" class="edge">
<title>5&#45;&gt;11</title>
<path fill="none" stroke="grey" stroke-width="2" d="M424.58,-503.15C438.87,-494.68 456.16,-484.42 471.61,-475.25"/>
<polygon fill="grey" stroke="grey" stroke-width="2" points="473.05,-478.47 479.87,-470.36 469.48,-472.45 473.05,-478.47"/>
</g>
<!-- 6 -->
<g id="node7" class="node">
<title>6</title>
<path fill="none" stroke="#56a9d8" stroke-width="2" d="M427.88,-612C427.88,-612 345.12,-612 345.12,-612 339.12,-612 333.12,-606 333.12,-600 333.12,-600 333.12,-588 333.12,-588 333.12,-582 339.12,-576 345.12,-576 345.12,-576 427.88,-576 427.88,-576 433.88,-576 439.88,-582 439.88,-588 439.88,-588 439.88,-600 439.88,-600 439.88,-606 433.88,-612 427.88,-612"/>
<text text-anchor="middle" x="386.5" y="-590.12" font-family="sans" font-size="10.00">download_population</text>
</g>
<!-- 6&#45;&gt;5 -->
<g id="edge14" class="edge">
<title>6&#45;&gt;5</title>
<path fill="none" stroke="grey" stroke-width="2" d="M388.52,-575.34C389.27,-568.75 390.15,-561.08 391,-553.67"/>
<polygon fill="grey" stroke="grey" stroke-width="2" points="394.45,-554.24 392.11,-543.91 387.5,-553.45 394.45,-554.24"/>
</g>
<!-- 10 -->
<g id="node11" class="node">
<title>10</title>
<path fill="none" stroke="#d8bc56" stroke-width="2" d="M354.38,-468C354.38,-468 316.62,-468 316.62,-468 310.62,-468 304.62,-462 304.62,-456 304.62,-456 304.62,-444 304.62,-444 304.62,-438 310.62,-432 316.62,-432 316.62,-432 354.38,-432 354.38,-432 360.38,-432 366.38,-438 366.38,-444 366.38,-444 366.38,-456 366.38,-456 366.38,-462 360.38,-468 354.38,-468"/>
<text text-anchor="middle" x="335.5" y="-446.12" font-family="sans" font-size="10.00">division_lu</text>
</g>
<!-- 6&#45;&gt;10 -->
<g id="edge22" class="edge">
<title>6&#45;&gt;10</title>
<path fill="none" stroke="grey" stroke-width="2" d="M374.14,-575.07C367.77,-565.12 360.34,-552.3 355.5,-540 348.09,-521.19 343.1,-499 339.95,-481.49"/>
<polygon fill="grey" stroke="grey" stroke-width="2" points="343.45,-481.15 338.35,-471.86 336.54,-482.3 343.45,-481.15"/>
</g>
<!-- 7 -->
<g id="node8" class="node">
<title>7</title>
<path fill="none" stroke="#d89556" stroke-width="2" d="M459.12,-252C459.12,-252 401.88,-252 401.88,-252 395.88,-252 389.88,-246 389.88,-240 389.88,-240 389.88,-228 389.88,-228 389.88,-222 395.88,-216 401.88,-216 401.88,-216 459.12,-216 459.12,-216 465.12,-216 471.12,-222 471.12,-228 471.12,-228 471.12,-240 471.12,-240 471.12,-246 465.12,-252 459.12,-252"/>
<text text-anchor="middle" x="430.5" y="-230.12" font-family="sans" font-size="10.00">base_analytics</text>
</g>
<!-- 7&#45;&gt;2 -->
<g id="edge10" class="edge">
<title>7&#45;&gt;2</title>
<path fill="none" stroke="grey" stroke-width="2" d="M430.5,-215.34C430.5,-208.75 430.5,-201.08 430.5,-193.67"/>
<polygon fill="grey" stroke="grey" stroke-width="2" points="434,-193.93 430.5,-183.93 427,-193.93 434,-193.93"/>
</g>
<!-- 17 -->
<g id="node18" class="node">
<title>17</title>
<path fill="none" stroke="#8fd856" stroke-width="2" d="M341,-180C341,-180 238,-180 238,-180 232,-180 226,-174 226,-168 226,-168 226,-156 226,-156 226,-150 232,-144 238,-144 238,-144 341,-144 341,-144 347,-144 353,-150 353,-156 353,-156 353,-168 353,-168 353,-174 347,-180 341,-180"/>
<text text-anchor="middle" x="289.5" y="-158.12" font-family="sans" font-size="10.00">plot_privacy_construction</text>
</g>
<!-- 7&#45;&gt;17 -->
<g id="edge30" class="edge">
<title>7&#45;&gt;17</title>
<path fill="none" stroke="grey" stroke-width="2" d="M394.55,-215.15C377.07,-206.47 355.82,-195.92 337.02,-186.59"/>
<polygon fill="grey" stroke="grey" stroke-width="2" points="338.6,-183.47 328.09,-182.16 335.49,-189.74 338.6,-183.47"/>
</g>
<!-- 20 -->
<g id="node21" class="node">
<title>20</title>
<path fill="none" stroke="#56d8b9" stroke-width="2" d="M610.5,-180C610.5,-180 522.5,-180 522.5,-180 516.5,-180 510.5,-174 510.5,-168 510.5,-168 510.5,-156 510.5,-156 510.5,-150 516.5,-144 522.5,-144 522.5,-144 610.5,-144 610.5,-144 616.5,-144 622.5,-150 622.5,-156 622.5,-156 622.5,-168 622.5,-168 622.5,-174 616.5,-180 610.5,-180"/>
<text text-anchor="middle" x="566.5" y="-158.12" font-family="sans" font-size="10.00">all_privacy_sensitivity</text>
</g>
<!-- 7&#45;&gt;20 -->
<g id="edge34" class="edge">
<title>7&#45;&gt;20</title>
<path fill="none" stroke="grey" stroke-width="2" d="M465.17,-215.15C481.96,-206.52 502.34,-196.02 520.41,-186.72"/>
<polygon fill="grey" stroke="grey" stroke-width="2" points="521.91,-189.89 529.2,-182.2 518.71,-183.66 521.91,-189.89"/>
</g>
<!-- 8&#45;&gt;7 -->
<g id="edge15" class="edge">
<title>8&#45;&gt;7</title>
<path fill="none" stroke="grey" stroke-width="2" d="M442.46,-287.34C440.94,-280.67 439.16,-272.89 437.45,-265.39"/>
<polygon fill="grey" stroke="grey" stroke-width="2" points="440.91,-264.82 435.27,-255.85 434.08,-266.38 440.91,-264.82"/>
</g>
<!-- 18 -->
<g id="node19" class="node">
<title>18</title>
<path fill="none" stroke="#56d87b" stroke-width="2" d="M321.88,-252C321.88,-252 197.12,-252 197.12,-252 191.12,-252 185.12,-246 185.12,-240 185.12,-240 185.12,-228 185.12,-228 185.12,-222 191.12,-216 197.12,-216 197.12,-216 321.88,-216 321.88,-216 327.88,-216 333.88,-222 333.88,-228 333.88,-228 333.88,-240 333.88,-240 333.88,-246 327.88,-252 321.88,-252"/>
<text text-anchor="middle" x="259.5" y="-230.12" font-family="sans" font-size="10.00">compare_privacy_construction</text>
</g>
<!-- 8&#45;&gt;18 -->
<g id="edge31" class="edge">
<title>8&#45;&gt;18</title>
<path fill="none" stroke="grey" stroke-width="2" d="M407.3,-290.33C381.81,-280.78 348.08,-268.16 319.28,-257.38"/>
<polygon fill="grey" stroke="grey" stroke-width="2" points="320.71,-254.17 310.11,-253.95 318.25,-260.73 320.71,-254.17"/>
</g>
<!-- 21 -->
<g id="node22" class="node">
<title>21</title>
<path fill="none" stroke="#56b9d8" stroke-width="2" d="M613,-252C613,-252 540,-252 540,-252 534,-252 528,-246 528,-240 528,-240 528,-228 528,-228 528,-222 534,-216 540,-216 540,-216 613,-216 613,-216 619,-216 625,-222 625,-228 625,-228 625,-240 625,-240 625,-246 619,-252 613,-252"/>
<text text-anchor="middle" x="576.5" y="-230.12" font-family="sans" font-size="10.00">privacy_sensitivity</text>
</g>
<!-- 8&#45;&gt;21 -->
<g id="edge36" class="edge">
<title>8&#45;&gt;21</title>
<path fill="none" stroke="grey" stroke-width="2" d="M479.64,-287.15C495.53,-278.6 514.8,-268.22 531.95,-258.99"/>
<polygon fill="grey" stroke="grey" stroke-width="2" points="533.61,-262.07 540.75,-254.25 530.29,-255.91 533.61,-262.07"/>
</g>
<!-- 9&#45;&gt;8 -->
<g id="edge16" class="edge">
<title>9&#45;&gt;8</title>
<path fill="none" stroke="grey" stroke-width="2" d="M363.8,-359.15C377.11,-350.76 393.19,-340.62 407.62,-331.52"/>
<polygon fill="grey" stroke="grey" stroke-width="2" points="409.1,-334.72 415.69,-326.43 405.37,-328.8 409.1,-334.72"/>
</g>
<!-- 9&#45;&gt;16 -->
<g id="edge28" class="edge">
<title>9&#45;&gt;16</title>
<path fill="none" stroke="grey" stroke-width="2" d="M280.16,-359.06C251.7,-349.84 216.79,-338.53 186.79,-328.81"/>
<polygon fill="grey" stroke="grey" stroke-width="2" points="188.17,-325.58 177.58,-325.82 186.01,-332.23 188.17,-325.58"/>
</g>
<!-- 22 -->
<g id="node23" class="node">
<title>22</title>
<path fill="none" stroke="#68d856" stroke-width="2" d="M377.75,-324C377.75,-324 267.25,-324 267.25,-324 261.25,-324 255.25,-318 255.25,-312 255.25,-312 255.25,-300 255.25,-300 255.25,-294 261.25,-288 267.25,-288 267.25,-288 377.75,-288 377.75,-288 383.75,-288 389.75,-294 389.75,-300 389.75,-300 389.75,-312 389.75,-312 389.75,-318 383.75,-324 377.75,-324"/>
<text text-anchor="middle" x="322.5" y="-302.12" font-family="sans" font-size="10.00">spatio_temporal_sensitivity</text>
</g>
<!-- 9&#45;&gt;22 -->
<g id="edge37" class="edge">
<title>9&#45;&gt;22</title>
<path fill="none" stroke="grey" stroke-width="2" d="M332.22,-359.34C331,-352.75 329.57,-345.08 328.2,-337.67"/>
<polygon fill="grey" stroke="grey" stroke-width="2" points="331.64,-337.07 326.38,-327.88 324.76,-338.35 331.64,-337.07"/>
</g>
<!-- 10&#45;&gt;9 -->
<g id="edge21" class="edge">
<title>10&#45;&gt;9</title>
<path fill="none" stroke="grey" stroke-width="2" d="M335.5,-431.34C335.5,-424.75 335.5,-417.08 335.5,-409.67"/>
<polygon fill="grey" stroke="grey" stroke-width="2" points="339,-409.93 335.5,-399.93 332,-409.93 339,-409.93"/>
</g>
<!-- 11&#45;&gt;2 -->
<g id="edge11" class="edge">
<title>11&#45;&gt;2</title>
<path fill="none" stroke="grey" stroke-width="2" d="M513.84,-431.2C516.12,-390.61 517.39,-289.08 480.5,-216 475.77,-206.63 468.85,-197.77 461.67,-190.07"/>
<polygon fill="grey" stroke="grey" stroke-width="2" points="464.25,-187.7 454.7,-183.12 459.31,-192.66 464.25,-187.7"/>
</g>
<!-- 11&#45;&gt;9 -->
<g id="edge20" class="edge">
<title>11&#45;&gt;9</title>
<path fill="none" stroke="grey" stroke-width="2" d="M469.2,-431.88C446.16,-422.76 417.52,-411.44 392.68,-401.61"/>
<polygon fill="grey" stroke="grey" stroke-width="2" points="394.22,-398.46 383.64,-398.04 391.65,-404.97 394.22,-398.46"/>
</g>
<!-- 19 -->
<g id="node20" class="node">
<title>19</title>
<path fill="none" stroke="#5692d8" stroke-width="2" d="M601.12,-108C601.12,-108 531.88,-108 531.88,-108 525.88,-108 519.88,-102 519.88,-96 519.88,-96 519.88,-84 519.88,-84 519.88,-78 525.88,-72 531.88,-72 531.88,-72 601.12,-72 601.12,-72 607.12,-72 613.12,-78 613.12,-84 613.12,-84 613.12,-96 613.12,-96 613.12,-102 607.12,-108 601.12,-108"/>
<text text-anchor="middle" x="566.5" y="-86.12" font-family="sans" font-size="10.00">plot_privacy_error</text>
</g>
<!-- 11&#45;&gt;19 -->
<g id="edge33" class="edge">
<title>11&#45;&gt;19</title>
<path fill="none" stroke="grey" stroke-width="2" d="M550.66,-431.09C592.41,-408.54 653.5,-365.54 653.5,-307 653.5,-307 653.5,-307 653.5,-233 653.5,-192.25 653.3,-178.42 631.5,-144 624.98,-133.7 615.77,-124.47 606.33,-116.71"/>
<polygon fill="grey" stroke="grey" stroke-width="2" points="608.58,-114.03 598.52,-110.73 604.33,-119.59 608.58,-114.03"/>
</g>
<!-- 12 -->
<g id="node13" class="node">
<title>12</title>
<path fill="none" stroke="#567bd8" stroke-width="2" d="M571.12,-540C571.12,-540 483.88,-540 483.88,-540 477.88,-540 471.88,-534 471.88,-528 471.88,-528 471.88,-516 471.88,-516 471.88,-510 477.88,-504 483.88,-504 483.88,-504 571.12,-504 571.12,-504 577.12,-504 583.12,-510 583.12,-516 583.12,-516 583.12,-528 583.12,-528 583.12,-534 577.12,-540 571.12,-540"/>
<text text-anchor="middle" x="527.5" y="-518.12" font-family="sans" font-size="10.00">counties_to_centroids</text>
</g>
<!-- 12&#45;&gt;11 -->
<g id="edge23" class="edge">
<title>12&#45;&gt;11</title>
<path fill="none" stroke="grey" stroke-width="2" d="M523.71,-503.34C522.29,-496.67 520.62,-488.89 519.01,-481.39"/>
<polygon fill="grey" stroke="grey" stroke-width="2" points="522.49,-480.91 516.97,-471.86 515.64,-482.37 522.49,-480.91"/>
</g>
<!-- 13 -->
<g id="node14" class="node">
<title>13</title>
<path fill="none" stroke="#56d892" stroke-width="2" d="M572.12,-612C572.12,-612 496.88,-612 496.88,-612 490.88,-612 484.88,-606 484.88,-600 484.88,-600 484.88,-588 484.88,-588 484.88,-582 490.88,-576 496.88,-576 496.88,-576 572.12,-576 572.12,-576 578.12,-576 584.12,-582 584.12,-588 584.12,-588 584.12,-600 584.12,-600 584.12,-606 578.12,-612 572.12,-612"/>
<text text-anchor="middle" x="534.5" y="-590.12" font-family="sans" font-size="10.00">download_counties</text>
</g>
<!-- 13&#45;&gt;12 -->
<g id="edge25" class="edge">
<title>13&#45;&gt;12</title>
<path fill="none" stroke="grey" stroke-width="2" d="M532.73,-575.34C532.08,-568.75 531.31,-561.08 530.57,-553.67"/>
<polygon fill="grey" stroke="grey" stroke-width="2" points="534.07,-553.52 529.59,-543.91 527.1,-554.21 534.07,-553.52"/>
</g>
<!-- 14 -->
<g id="node15" class="node">
<title>14</title>
<path fill="none" stroke="#56d86b" stroke-width="2" d="M785.75,-396C785.75,-396 693.25,-396 693.25,-396 687.25,-396 681.25,-390 681.25,-384 681.25,-384 681.25,-372 681.25,-372 681.25,-366 687.25,-360 693.25,-360 693.25,-360 785.75,-360 785.75,-360 791.75,-360 797.75,-366 797.75,-372 797.75,-372 797.75,-384 797.75,-384 797.75,-390 791.75,-396 785.75,-396"/>
<text text-anchor="middle" x="739.5" y="-374.12" font-family="sans" font-size="10.00">plot_space_time_prism</text>
</g>
<!-- 13&#45;&gt;14 -->
<g id="edge26" class="edge">
<title>13&#45;&gt;14</title>
<path fill="none" stroke="grey" stroke-width="2" d="M555.05,-575.04C566.34,-564.98 580.45,-552.06 592.5,-540 637.65,-494.83 687.15,-439.26 715.64,-406.62"/>
<polygon fill="grey" stroke="grey" stroke-width="2" points="718.21,-409 722.14,-399.16 712.93,-404.4 718.21,-409"/>
</g>
<!-- 14&#45;&gt;0 -->
<g id="edge4" class="edge">
<title>14&#45;&gt;0</title>
<path fill="none" stroke="grey" stroke-width="2" d="M734.53,-359.23C727.5,-332.5 715.5,-280.25 715.5,-235 715.5,-235 715.5,-235 715.5,-161 715.5,-103.79 673.83,-97.26 622.5,-72 569.04,-45.7 395.16,-28.72 315.29,-22.12"/>
<polygon fill="grey" stroke="grey" stroke-width="2" points="315.68,-18.64 305.43,-21.32 315.12,-25.61 315.68,-18.64"/>
</g>
<!-- 15 -->
<g id="node16" class="node">
<title>15</title>
<path fill="none" stroke="#56d8a9" stroke-width="2" d="M273.5,-108C273.5,-108 197.5,-108 197.5,-108 191.5,-108 185.5,-102 185.5,-96 185.5,-96 185.5,-84 185.5,-84 185.5,-78 191.5,-72 197.5,-72 197.5,-72 273.5,-72 273.5,-72 279.5,-72 285.5,-78 285.5,-84 285.5,-84 285.5,-96 285.5,-96 285.5,-102 279.5,-108 273.5,-108"/>
<text text-anchor="middle" x="235.5" y="-86.12" font-family="sans" font-size="10.00">plot_gdp_examples</text>
</g>
<!-- 15&#45;&gt;0 -->
<g id="edge7" class="edge">
<title>15&#45;&gt;0</title>
<path fill="none" stroke="grey" stroke-width="2" d="M245.34,-71.34C249.24,-64.34 253.82,-56.12 258.19,-48.28"/>
<polygon fill="grey" stroke="grey" stroke-width="2" points="261.24,-49.99 263.05,-39.55 255.13,-46.58 261.24,-49.99"/>
</g>
<!-- 16&#45;&gt;0 -->
<g id="edge1" class="edge">
<title>16&#45;&gt;0</title>
<path fill="none" stroke="grey" stroke-width="2" d="M116.68,-287.21C111.01,-244.85 102.84,-136.75 154.5,-72 174.15,-47.37 207.62,-33.88 234.22,-26.69"/>
<polygon fill="grey" stroke="grey" stroke-width="2" points="234.82,-30.14 243.7,-24.36 233.15,-23.34 234.82,-30.14"/>
</g>
<!-- 17&#45;&gt;0 -->
<g id="edge2" class="edge">
<title>17&#45;&gt;0</title>
<path fill="none" stroke="grey" stroke-width="2" d="M292.96,-143.12C295.88,-125.04 298.94,-96.36 294.5,-72 293.08,-64.19 290.56,-56.04 287.79,-48.53"/>
<polygon fill="grey" stroke="grey" stroke-width="2" points="291.13,-47.47 284.15,-39.5 284.64,-50.08 291.13,-47.47"/>
</g>
<!-- 18&#45;&gt;17 -->
<g id="edge29" class="edge">
<title>18&#45;&gt;17</title>
<path fill="none" stroke="grey" stroke-width="2" d="M267.07,-215.34C270,-208.51 273.43,-200.5 276.71,-192.83"/>
<polygon fill="grey" stroke="grey" stroke-width="2" points="279.91,-194.25 280.64,-183.68 273.48,-191.5 279.91,-194.25"/>
</g>
<!-- 19&#45;&gt;0 -->
<g id="edge5" class="edge">
<title>19&#45;&gt;0</title>
<path fill="none" stroke="grey" stroke-width="2" d="M518.94,-77.6C462.17,-63.99 368.26,-41.48 314.88,-28.68"/>
<polygon fill="grey" stroke="grey" stroke-width="2" points="315.71,-25.28 305.17,-26.35 314.08,-32.09 315.71,-25.28"/>
</g>
<!-- 20&#45;&gt;19 -->
<g id="edge32" class="edge">
<title>20&#45;&gt;19</title>
<path fill="none" stroke="grey" stroke-width="2" d="M566.5,-143.34C566.5,-136.75 566.5,-129.08 566.5,-121.67"/>
<polygon fill="grey" stroke="grey" stroke-width="2" points="570,-121.93 566.5,-111.93 563,-121.93 570,-121.93"/>
</g>
<!-- 21&#45;&gt;20 -->
<g id="edge35" class="edge">
<title>21&#45;&gt;20</title>
<path fill="none" stroke="grey" stroke-width="2" d="M573.98,-215.34C573.04,-208.75 571.94,-201.08 570.88,-193.67"/>
<polygon fill="grey" stroke="grey" stroke-width="2" points="574.36,-193.3 569.49,-183.9 567.43,-194.29 574.36,-193.3"/>
</g>
<!-- 22&#45;&gt;0 -->
<g id="edge8" class="edge">
<title>22&#45;&gt;0</title>
<path fill="none" stroke="grey" stroke-width="2" d="M254.61,-297.59C225.57,-290.67 194.3,-277.39 176.5,-252 130.59,-186.49 135.54,-140.72 176.5,-72 189.08,-50.89 213.32,-37.68 234.54,-29.72"/>
<polygon fill="grey" stroke="grey" stroke-width="2" points="235.37,-33.14 243.71,-26.61 233.11,-26.51 235.37,-33.14"/>
</g>
</g>
</svg>
