<?xml version="1.0" encoding="UTF-8" standalone="no"?>
<!DOCTYPE svg PUBLIC "-//W3C//DTD SVG 1.1//EN"
 "http://www.w3.org/Graphics/SVG/1.1/DTD/svg11.dtd">
<!-- Generated by graphviz version 9.0.0 (20230911.1827)
 -->
<!-- Title: snakemake_dag Pages: 1 -->
<svg width="720pt" height="620pt"
 viewBox="0.00 0.00 720.12 620.00" xmlns="http://www.w3.org/2000/svg" xmlns:xlink="http://www.w3.org/1999/xlink">
<g id="graph0" class="graph" transform="scale(1 1) rotate(0) translate(4 616)">
<title>snakemake_dag</title>
<polygon fill="white" stroke="none" points="-4,4 -4,-616 716.12,-616 716.12,4 -4,4"/>
<!-- 0 -->
<g id="node1" class="node">
<title>0</title>
<path fill="none" stroke="#d8bc56" stroke-width="2" d="M363.62,-36C363.62,-36 333.62,-36 333.62,-36 327.62,-36 321.62,-30 321.62,-24 321.62,-24 321.62,-12 321.62,-12 321.62,-6 327.62,0 333.62,0 333.62,0 363.62,0 363.62,0 369.62,0 375.62,-6 375.62,-12 375.62,-12 375.62,-24 375.62,-24 375.62,-30 369.62,-36 363.62,-36"/>
<text text-anchor="middle" x="348.62" y="-14.12" font-family="sans" font-size="10.00">all</text>
</g>
<!-- 1 -->
<g id="node2" class="node">
<title>1</title>
<path fill="none" stroke="#d86e56" stroke-width="2" d="M86.12,-468C86.12,-468 25.12,-468 25.12,-468 19.12,-468 13.12,-462 13.12,-456 13.12,-456 13.12,-444 13.12,-444 13.12,-438 19.12,-432 25.12,-432 25.12,-432 86.12,-432 86.12,-432 92.12,-432 98.12,-438 98.12,-444 98.12,-444 98.12,-456 98.12,-456 98.12,-462 92.12,-468 86.12,-468"/>
<text text-anchor="middle" x="55.62" y="-446.12" font-family="sans" font-size="10.00">distance_matrix</text>
</g>
<!-- 1&#45;&gt;0 -->
<g id="edge3" class="edge">
<title>1&#45;&gt;0</title>
<path fill="none" stroke="grey" stroke-width="2" d="M47.35,-431.05C35.91,-404.53 16.62,-353.02 16.62,-307 16.62,-307 16.62,-307 16.62,-161 16.62,-120.55 6.42,-99.98 35.62,-72 74.01,-35.22 232.29,-23.77 307.97,-20.37"/>
<polygon fill="grey" stroke="grey" stroke-width="2" points="307.79,-23.88 317.64,-19.96 307.5,-16.88 307.79,-23.88"/>
</g>
<!-- 9 -->
<g id="node10" class="node">
<title>9</title>
<path fill="none" stroke="#56d873" stroke-width="2" d="M415.75,-396C415.75,-396 301.5,-396 301.5,-396 295.5,-396 289.5,-390 289.5,-384 289.5,-384 289.5,-372 289.5,-372 289.5,-366 295.5,-360 301.5,-360 301.5,-360 415.75,-360 415.75,-360 421.75,-360 427.75,-366 427.75,-372 427.75,-372 427.75,-384 427.75,-384 427.75,-390 421.75,-396 415.75,-396"/>
<text text-anchor="middle" x="358.62" y="-374.12" font-family="sans" font-size="10.00">collective_model_sensitivity</text>
</g>
<!-- 1&#45;&gt;9 -->
<g id="edge19" class="edge">
<title>1&#45;&gt;9</title>
<path fill="none" stroke="grey" stroke-width="2" d="M99.04,-438.97C145.06,-428.34 218.84,-411.29 276,-398.09"/>
<polygon fill="grey" stroke="grey" stroke-width="2" points="276.76,-401.5 285.72,-395.84 275.19,-394.68 276.76,-401.5"/>
</g>
<!-- 15 -->
<g id="node16" class="node">
<title>15</title>
<path fill="none" stroke="#5673d8" stroke-width="2" d="M126.25,-108C126.25,-108 57,-108 57,-108 51,-108 45,-102 45,-96 45,-96 45,-84 45,-84 45,-78 51,-72 57,-72 57,-72 126.25,-72 126.25,-72 132.25,-72 138.25,-78 138.25,-84 138.25,-84 138.25,-96 138.25,-96 138.25,-102 132.25,-108 126.25,-108"/>
<text text-anchor="middle" x="91.62" y="-86.12" font-family="sans" font-size="10.00">plot_privacy_error</text>
</g>
<!-- 1&#45;&gt;15 -->
<g id="edge28" class="edge">
<title>1&#45;&gt;15</title>
<path fill="none" stroke="grey" stroke-width="2" d="M59.15,-431.15C64.13,-404.32 72.62,-351.94 72.62,-307 72.62,-307 72.62,-307 72.62,-233 72.62,-194.31 79.64,-150.21 85.14,-121.56"/>
<polygon fill="grey" stroke="grey" stroke-width="2" points="88.57,-122.29 87.1,-111.8 81.7,-120.92 88.57,-122.29"/>
</g>
<!-- 2 -->
<g id="node3" class="node">
<title>2</title>
<path fill="none" stroke="#d88d56" stroke-width="2" d="M99.25,-540C99.25,-540 12,-540 12,-540 6,-540 0,-534 0,-528 0,-528 0,-516 0,-516 0,-510 6,-504 12,-504 12,-504 99.25,-504 99.25,-504 105.25,-504 111.25,-510 111.25,-516 111.25,-516 111.25,-528 111.25,-528 111.25,-534 105.25,-540 99.25,-540"/>
<text text-anchor="middle" x="55.62" y="-518.12" font-family="sans" font-size="10.00">counties_to_centroids</text>
</g>
<!-- 2&#45;&gt;1 -->
<g id="edge8" class="edge">
<title>2&#45;&gt;1</title>
<path fill="none" stroke="grey" stroke-width="2" d="M55.62,-503.34C55.62,-496.75 55.62,-489.08 55.62,-481.67"/>
<polygon fill="grey" stroke="grey" stroke-width="2" points="59.13,-481.93 55.63,-471.93 52.13,-481.93 59.13,-481.93"/>
</g>
<!-- 3 -->
<g id="node4" class="node">
<title>3</title>
<path fill="none" stroke="#568ad8" stroke-width="2" d="M93.25,-612C93.25,-612 18,-612 18,-612 12,-612 6,-606 6,-600 6,-600 6,-588 6,-588 6,-582 12,-576 18,-576 18,-576 93.25,-576 93.25,-576 99.25,-576 105.25,-582 105.25,-588 105.25,-588 105.25,-600 105.25,-600 105.25,-606 99.25,-612 93.25,-612"/>
<text text-anchor="middle" x="55.62" y="-590.12" font-family="sans" font-size="10.00">download_counties</text>
</g>
<!-- 3&#45;&gt;2 -->
<g id="edge10" class="edge">
<title>3&#45;&gt;2</title>
<path fill="none" stroke="grey" stroke-width="2" d="M55.62,-575.34C55.62,-568.75 55.62,-561.08 55.62,-553.67"/>
<polygon fill="grey" stroke="grey" stroke-width="2" points="59.13,-553.93 55.63,-543.93 52.13,-553.93 59.13,-553.93"/>
</g>
<!-- 4 -->
<g id="node5" class="node">
<title>4</title>
<path fill="none" stroke="#d6d856" stroke-width="2" d="M289.75,-540C289.75,-540 253.5,-540 253.5,-540 247.5,-540 241.5,-534 241.5,-528 241.5,-528 241.5,-516 241.5,-516 241.5,-510 247.5,-504 253.5,-504 253.5,-504 289.75,-504 289.75,-504 295.75,-504 301.75,-510 301.75,-516 301.75,-516 301.75,-528 301.75,-528 301.75,-534 295.75,-540 289.75,-540"/>
<text text-anchor="middle" x="271.62" y="-518.12" font-family="sans" font-size="10.00">clean_pop</text>
</g>
<!-- 4&#45;&gt;0 -->
<g id="edge2" class="edge">
<title>4&#45;&gt;0</title>
<path fill="none" stroke="grey" stroke-width="2" d="M240.52,-507.48C197.91,-486.61 126.62,-442.25 126.62,-379 126.62,-379 126.62,-379 126.62,-233 126.62,-192.55 122.3,-177.05 145.62,-144 186.07,-86.7 261.92,-50.48 308.58,-32.55"/>
<polygon fill="grey" stroke="grey" stroke-width="2" points="309.64,-35.89 317.79,-29.13 307.2,-29.33 309.64,-35.89"/>
</g>
<!-- 4&#45;&gt;1 -->
<g id="edge9" class="edge">
<title>4&#45;&gt;1</title>
<path fill="none" stroke="grey" stroke-width="2" d="M240.68,-510.97C206.95,-500.04 152.32,-482.34 111.13,-468.99"/>
<polygon fill="grey" stroke="grey" stroke-width="2" points="112.29,-465.69 101.7,-465.93 110.14,-472.34 112.29,-465.69"/>
</g>
<!-- 7 -->
<g id="node8" class="node">
<title>7</title>
<path fill="none" stroke="#88d856" stroke-width="2" d="M459.25,-468C459.25,-468 420,-468 420,-468 414,-468 408,-462 408,-456 408,-456 408,-444 408,-444 408,-438 414,-432 420,-432 420,-432 459.25,-432 459.25,-432 465.25,-432 471.25,-438 471.25,-444 471.25,-444 471.25,-456 471.25,-456 471.25,-462 465.25,-468 459.25,-468"/>
<text text-anchor="middle" x="439.62" y="-446.12" font-family="sans" font-size="10.00">clean_mob</text>
</g>
<!-- 4&#45;&gt;7 -->
<g id="edge15" class="edge">
<title>4&#45;&gt;7</title>
<path fill="none" stroke="grey" stroke-width="2" d="M302.44,-508.16C328.47,-497.32 366.06,-481.65 395.32,-469.46"/>
<polygon fill="grey" stroke="grey" stroke-width="2" points="396.61,-472.71 404.49,-465.64 393.92,-466.25 396.61,-472.71"/>
</g>
<!-- 4&#45;&gt;9 -->
<g id="edge18" class="edge">
<title>4&#45;&gt;9</title>
<path fill="none" stroke="grey" stroke-width="2" d="M280,-503.14C288.84,-484.82 303.53,-455.74 318.62,-432 323.98,-423.57 330.29,-414.78 336.3,-406.83"/>
<polygon fill="grey" stroke="grey" stroke-width="2" points="338.98,-409.08 342.33,-399.03 333.45,-404.8 338.98,-409.08"/>
</g>
<!-- 13 -->
<g id="node14" class="node">
<title>13</title>
<path fill="none" stroke="#56d8a2" stroke-width="2" d="M337,-324C337,-324 284.25,-324 284.25,-324 278.25,-324 272.25,-318 272.25,-312 272.25,-312 272.25,-300 272.25,-300 272.25,-294 278.25,-288 284.25,-288 284.25,-288 337,-288 337,-288 343,-288 349,-294 349,-300 349,-300 349,-312 349,-312 349,-318 343,-324 337,-324"/>
<text text-anchor="middle" x="310.62" y="-302.12" font-family="sans" font-size="10.00">simulate_depr</text>
</g>
<!-- 4&#45;&gt;13 -->
<g id="edge25" class="edge">
<title>4&#45;&gt;13</title>
<path fill="none" stroke="grey" stroke-width="2" d="M270.02,-503.16C267.88,-472.99 265.88,-410.23 280.62,-360 283.05,-351.74 286.96,-343.38 291.17,-335.81"/>
<polygon fill="grey" stroke="grey" stroke-width="2" points="294.14,-337.67 296.3,-327.3 288.15,-334.06 294.14,-337.67"/>
</g>
<!-- 5 -->
<g id="node6" class="node">
<title>5</title>
<path fill="none" stroke="#56d88a" stroke-width="2" d="M352,-612C352,-612 269.25,-612 269.25,-612 263.25,-612 257.25,-606 257.25,-600 257.25,-600 257.25,-588 257.25,-588 257.25,-582 263.25,-576 269.25,-576 269.25,-576 352,-576 352,-576 358,-576 364,-582 364,-588 364,-588 364,-600 364,-600 364,-606 358,-612 352,-612"/>
<text text-anchor="middle" x="310.62" y="-590.12" font-family="sans" font-size="10.00">download_population</text>
</g>
<!-- 5&#45;&gt;4 -->
<g id="edge11" class="edge">
<title>5&#45;&gt;4</title>
<path fill="none" stroke="grey" stroke-width="2" d="M300.78,-575.34C296.89,-568.34 292.3,-560.12 287.94,-552.28"/>
<polygon fill="grey" stroke="grey" stroke-width="2" points="291,-550.58 283.07,-543.55 284.88,-553.99 291,-550.58"/>
</g>
<!-- 10 -->
<g id="node11" class="node">
<title>10</title>
<path fill="none" stroke="#a7d856" stroke-width="2" d="M377.5,-468C377.5,-468 339.75,-468 339.75,-468 333.75,-468 327.75,-462 327.75,-456 327.75,-456 327.75,-444 327.75,-444 327.75,-438 333.75,-432 339.75,-432 339.75,-432 377.5,-432 377.5,-432 383.5,-432 389.5,-438 389.5,-444 389.5,-444 389.5,-456 389.5,-456 389.5,-462 383.5,-468 377.5,-468"/>
<text text-anchor="middle" x="358.62" y="-446.12" font-family="sans" font-size="10.00">division_lu</text>
</g>
<!-- 5&#45;&gt;10 -->
<g id="edge20" class="edge">
<title>5&#45;&gt;10</title>
<path fill="none" stroke="grey" stroke-width="2" d="M316.7,-575.02C324.71,-551.33 338.9,-509.35 348.53,-480.86"/>
<polygon fill="grey" stroke="grey" stroke-width="2" points="351.74,-482.3 351.63,-471.71 345.11,-480.06 351.74,-482.3"/>
</g>
<!-- 6 -->
<g id="node7" class="node">
<title>6</title>
<path fill="none" stroke="#56a2d8" stroke-width="2" d="M690.25,-324C690.25,-324 555,-324 555,-324 549,-324 543,-318 543,-312 543,-312 543,-300 543,-300 543,-294 549,-288 555,-288 555,-288 690.25,-288 690.25,-288 696.25,-288 702.25,-294 702.25,-300 702.25,-300 702.25,-312 702.25,-312 702.25,-318 696.25,-324 690.25,-324"/>
<text text-anchor="middle" x="622.62" y="-302.12" font-family="sans" font-size="10.00">plot_collective_model_sensitivity</text>
</g>
<!-- 6&#45;&gt;0 -->
<g id="edge1" class="edge">
<title>6&#45;&gt;0</title>
<path fill="none" stroke="grey" stroke-width="2" d="M621.49,-287.02C618.61,-254.95 608.51,-187.18 573.62,-144 524.93,-83.73 438.97,-47.75 388.57,-30.82"/>
<polygon fill="grey" stroke="grey" stroke-width="2" points="389.73,-27.52 379.14,-27.76 387.57,-34.17 389.73,-27.52"/>
</g>
<!-- 7&#45;&gt;6 -->
<g id="edge13" class="edge">
<title>7&#45;&gt;6</title>
<path fill="none" stroke="grey" stroke-width="2" d="M462.8,-431.02C494.84,-406.16 552.84,-361.15 589.46,-332.73"/>
<polygon fill="grey" stroke="grey" stroke-width="2" points="591.49,-335.59 597.24,-326.69 587.2,-330.06 591.49,-335.59"/>
</g>
<!-- 7&#45;&gt;9 -->
<g id="edge17" class="edge">
<title>7&#45;&gt;9</title>
<path fill="none" stroke="grey" stroke-width="2" d="M419.19,-431.34C410.05,-423.44 399.08,-413.96 389.01,-405.26"/>
<polygon fill="grey" stroke="grey" stroke-width="2" points="391.48,-402.77 381.63,-398.88 386.91,-408.07 391.48,-402.77"/>
</g>
<!-- 8 -->
<g id="node9" class="node">
<title>8</title>
<path fill="none" stroke="#d8a456" stroke-width="2" d="M468.25,-540C468.25,-540 411,-540 411,-540 405,-540 399,-534 399,-528 399,-528 399,-516 399,-516 399,-510 405,-504 411,-504 411,-504 468.25,-504 468.25,-504 474.25,-504 480.25,-510 480.25,-516 480.25,-516 480.25,-528 480.25,-528 480.25,-534 474.25,-540 468.25,-540"/>
<text text-anchor="middle" x="439.62" y="-518.12" font-family="sans" font-size="10.00">download_mob</text>
</g>
<!-- 8&#45;&gt;7 -->
<g id="edge14" class="edge">
<title>8&#45;&gt;7</title>
<path fill="none" stroke="grey" stroke-width="2" d="M439.62,-503.34C439.62,-496.75 439.62,-489.08 439.62,-481.67"/>
<polygon fill="grey" stroke="grey" stroke-width="2" points="443.13,-481.93 439.63,-471.93 436.13,-481.93 443.13,-481.93"/>
</g>
<!-- 9&#45;&gt;6 -->
<g id="edge12" class="edge">
<title>9&#45;&gt;6</title>
<path fill="none" stroke="grey" stroke-width="2" d="M426.27,-359.06C461.82,-349.64 505.61,-338.03 542.81,-328.16"/>
<polygon fill="grey" stroke="grey" stroke-width="2" points="543.46,-331.61 552.23,-325.67 541.67,-324.84 543.46,-331.61"/>
</g>
<!-- 9&#45;&gt;13 -->
<g id="edge24" class="edge">
<title>9&#45;&gt;13</title>
<path fill="none" stroke="grey" stroke-width="2" d="M346.51,-359.34C341.55,-352.1 335.68,-343.53 330.13,-335.45"/>
<polygon fill="grey" stroke="grey" stroke-width="2" points="333.15,-333.67 324.61,-327.4 327.38,-337.62 333.15,-333.67"/>
</g>
<!-- 18 -->
<g id="node19" class="node">
<title>18</title>
<path fill="none" stroke="#56d8c1" stroke-width="2" d="M552.88,-180C552.88,-180 442.38,-180 442.38,-180 436.38,-180 430.38,-174 430.38,-168 430.38,-168 430.38,-156 430.38,-156 430.38,-150 436.38,-144 442.38,-144 442.38,-144 552.88,-144 552.88,-144 558.88,-144 564.88,-150 564.88,-156 564.88,-156 564.88,-168 564.88,-168 564.88,-174 558.88,-180 552.88,-180"/>
<text text-anchor="middle" x="497.62" y="-158.12" font-family="sans" font-size="10.00">spatio_temporal_sensitivity</text>
</g>
<!-- 9&#45;&gt;18 -->
<g id="edge32" class="edge">
<title>9&#45;&gt;18</title>
<path fill="none" stroke="grey" stroke-width="2" d="M401.53,-359.01C442.15,-339.36 500.68,-303.65 526.62,-252 536.32,-232.7 528.13,-209.46 518.02,-191.56"/>
<polygon fill="grey" stroke="grey" stroke-width="2" points="521.11,-189.9 512.86,-183.24 515.16,-193.59 521.11,-189.9"/>
</g>
<!-- 10&#45;&gt;9 -->
<g id="edge16" class="edge">
<title>10&#45;&gt;9</title>
<path fill="none" stroke="grey" stroke-width="2" d="M358.62,-431.34C358.62,-424.75 358.62,-417.08 358.62,-409.67"/>
<polygon fill="grey" stroke="grey" stroke-width="2" points="362.13,-409.93 358.63,-399.93 355.13,-409.93 362.13,-409.93"/>
</g>
<!-- 11 -->
<g id="node12" class="node">
<title>11</title>
<path fill="none" stroke="#59d856" stroke-width="2" d="M400.12,-180C400.12,-180 297.12,-180 297.12,-180 291.12,-180 285.12,-174 285.12,-168 285.12,-168 285.12,-156 285.12,-156 285.12,-150 291.12,-144 297.12,-144 297.12,-144 400.12,-144 400.12,-144 406.12,-144 412.12,-150 412.12,-156 412.12,-156 412.12,-168 412.12,-168 412.12,-174 406.12,-180 400.12,-180"/>
<text text-anchor="middle" x="348.62" y="-158.12" font-family="sans" font-size="10.00">plot_privacy_construction</text>
</g>
<!-- 11&#45;&gt;0 -->
<g id="edge7" class="edge">
<title>11&#45;&gt;0</title>
<path fill="none" stroke="grey" stroke-width="2" d="M348.62,-143.02C348.62,-119.54 348.62,-78.11 348.62,-49.64"/>
<polygon fill="grey" stroke="grey" stroke-width="2" points="352.13,-49.87 348.63,-39.87 345.13,-49.87 352.13,-49.87"/>
</g>
<!-- 12 -->
<g id="node13" class="node">
<title>12</title>
<path fill="none" stroke="#56d8d8" stroke-width="2" d="M339.25,-252C339.25,-252 282,-252 282,-252 276,-252 270,-246 270,-240 270,-240 270,-228 270,-228 270,-222 276,-216 282,-216 282,-216 339.25,-216 339.25,-216 345.25,-216 351.25,-222 351.25,-228 351.25,-228 351.25,-240 351.25,-240 351.25,-246 345.25,-252 339.25,-252"/>
<text text-anchor="middle" x="310.62" y="-230.12" font-family="sans" font-size="10.00">base_analytics</text>
</g>
<!-- 12&#45;&gt;11 -->
<g id="edge21" class="edge">
<title>12&#45;&gt;11</title>
<path fill="none" stroke="grey" stroke-width="2" d="M320.21,-215.34C324.01,-208.34 328.48,-200.12 332.73,-192.28"/>
<polygon fill="grey" stroke="grey" stroke-width="2" points="335.77,-194.02 337.46,-183.56 329.62,-190.68 335.77,-194.02"/>
</g>
<!-- 16 -->
<g id="node17" class="node">
<title>16</title>
<path fill="none" stroke="#70d856" stroke-width="2" d="M254.62,-180C254.62,-180 166.62,-180 166.62,-180 160.62,-180 154.62,-174 154.62,-168 154.62,-168 154.62,-156 154.62,-156 154.62,-150 160.62,-144 166.62,-144 166.62,-144 254.62,-144 254.62,-144 260.62,-144 266.62,-150 266.62,-156 266.62,-156 266.62,-168 266.62,-168 266.62,-174 260.62,-180 254.62,-180"/>
<text text-anchor="middle" x="210.62" y="-158.12" font-family="sans" font-size="10.00">all_privacy_sensitivity</text>
</g>
<!-- 12&#45;&gt;16 -->
<g id="edge29" class="edge">
<title>12&#45;&gt;16</title>
<path fill="none" stroke="grey" stroke-width="2" d="M285.13,-215.15C273.38,-206.93 259.22,-197.02 246.42,-188.06"/>
<polygon fill="grey" stroke="grey" stroke-width="2" points="248.75,-185.42 238.55,-182.55 244.74,-191.15 248.75,-185.42"/>
</g>
<!-- 13&#45;&gt;12 -->
<g id="edge23" class="edge">
<title>13&#45;&gt;12</title>
<path fill="none" stroke="grey" stroke-width="2" d="M310.62,-287.34C310.62,-280.75 310.62,-273.08 310.62,-265.67"/>
<polygon fill="grey" stroke="grey" stroke-width="2" points="314.13,-265.93 310.63,-255.93 307.13,-265.93 314.13,-265.93"/>
</g>
<!-- 14 -->
<g id="node15" class="node">
<title>14</title>
<path fill="none" stroke="#d85656" stroke-width="2" d="M506,-252C506,-252 381.25,-252 381.25,-252 375.25,-252 369.25,-246 369.25,-240 369.25,-240 369.25,-228 369.25,-228 369.25,-222 375.25,-216 381.25,-216 381.25,-216 506,-216 506,-216 512,-216 518,-222 518,-228 518,-228 518,-240 518,-240 518,-246 512,-252 506,-252"/>
<text text-anchor="middle" x="443.62" y="-230.12" font-family="sans" font-size="10.00">compare_privacy_construction</text>
</g>
<!-- 13&#45;&gt;14 -->
<g id="edge26" class="edge">
<title>13&#45;&gt;14</title>
<path fill="none" stroke="grey" stroke-width="2" d="M344.53,-287.15C360.87,-278.56 380.69,-268.12 398.3,-258.85"/>
<polygon fill="grey" stroke="grey" stroke-width="2" points="399.88,-261.98 407.1,-254.22 396.62,-255.78 399.88,-261.98"/>
</g>
<!-- 17 -->
<g id="node18" class="node">
<title>17</title>
<path fill="none" stroke="#bed856" stroke-width="2" d="M240.12,-252C240.12,-252 167.12,-252 167.12,-252 161.12,-252 155.12,-246 155.12,-240 155.12,-240 155.12,-228 155.12,-228 155.12,-222 161.12,-216 167.12,-216 167.12,-216 240.12,-216 240.12,-216 246.12,-216 252.12,-222 252.12,-228 252.12,-228 252.12,-240 252.12,-240 252.12,-246 246.12,-252 240.12,-252"/>
<text text-anchor="middle" x="203.62" y="-230.12" font-family="sans" font-size="10.00">privacy_sensitivity</text>
</g>
<!-- 13&#45;&gt;17 -->
<g id="edge31" class="edge">
<title>13&#45;&gt;17</title>
<path fill="none" stroke="grey" stroke-width="2" d="M283.35,-287.15C270.64,-278.84 255.32,-268.82 241.52,-259.79"/>
<polygon fill="grey" stroke="grey" stroke-width="2" points="243.67,-257.02 233.39,-254.47 239.84,-262.87 243.67,-257.02"/>
</g>
<!-- 14&#45;&gt;11 -->
<g id="edge22" class="edge">
<title>14&#45;&gt;11</title>
<path fill="none" stroke="grey" stroke-width="2" d="M419.65,-215.34C408.6,-207.19 395.27,-197.37 383.16,-188.45"/>
<polygon fill="grey" stroke="grey" stroke-width="2" points="385.48,-185.81 375.36,-182.7 381.33,-191.45 385.48,-185.81"/>
</g>
<!-- 15&#45;&gt;0 -->
<g id="edge6" class="edge">
<title>15&#45;&gt;0</title>
<path fill="none" stroke="grey" stroke-width="2" d="M139.23,-75.69C143.76,-74.44 148.28,-73.19 152.62,-72 206.38,-57.24 268.5,-40.5 308.15,-29.85"/>
<polygon fill="grey" stroke="grey" stroke-width="2" points="309.02,-33.24 317.77,-27.27 307.2,-26.48 309.02,-33.24"/>
</g>
<!-- 16&#45;&gt;15 -->
<g id="edge27" class="edge">
<title>16&#45;&gt;15</title>
<path fill="none" stroke="grey" stroke-width="2" d="M180.29,-143.15C165.88,-134.68 148.44,-124.42 132.86,-115.25"/>
<polygon fill="grey" stroke="grey" stroke-width="2" points="134.91,-112.4 124.52,-110.35 131.36,-118.43 134.91,-112.4"/>
</g>
<!-- 17&#45;&gt;16 -->
<g id="edge30" class="edge">
<title>17&#45;&gt;16</title>
<path fill="none" stroke="grey" stroke-width="2" d="M205.39,-215.34C206.05,-208.75 206.82,-201.08 207.56,-193.67"/>
<polygon fill="grey" stroke="grey" stroke-width="2" points="211.02,-194.21 208.53,-183.91 204.06,-193.52 211.02,-194.21"/>
</g>
<!-- 18&#45;&gt;0 -->
<g id="edge4" class="edge">
<title>18&#45;&gt;0</title>
<path fill="none" stroke="grey" stroke-width="2" d="M478.75,-143.02C452.89,-118.37 406.25,-73.92 376.4,-45.47"/>
<polygon fill="grey" stroke="grey" stroke-width="2" points="379.19,-43.29 369.53,-38.93 374.36,-48.36 379.19,-43.29"/>
</g>
<!-- 19 -->
<g id="node20" class="node">
<title>19</title>
<path fill="none" stroke="#56c1d8" stroke-width="2" d="M700.12,-108C700.12,-108 633.12,-108 633.12,-108 627.12,-108 621.12,-102 621.12,-96 621.12,-96 621.12,-84 621.12,-84 621.12,-78 627.12,-72 633.12,-72 633.12,-72 700.12,-72 700.12,-72 706.12,-72 712.12,-78 712.12,-84 712.12,-84 712.12,-96 712.12,-96 712.12,-102 706.12,-108 700.12,-108"/>
<text text-anchor="middle" x="666.62" y="-86.12" font-family="sans" font-size="10.00">current_rulegraph</text>
</g>
<!-- 19&#45;&gt;0 -->
<g id="edge5" class="edge">
<title>19&#45;&gt;0</title>
<path fill="none" stroke="grey" stroke-width="2" d="M620.2,-75.48C615.63,-74.26 611.04,-73.08 606.62,-72 530.16,-53.34 439.89,-35.81 388.94,-26.33"/>
<polygon fill="grey" stroke="grey" stroke-width="2" points="389.71,-22.91 379.24,-24.54 388.44,-29.8 389.71,-22.91"/>
</g>
</g>
</svg>
